<?xml version="1.0" encoding="UTF-8" standalone="no"?>
<!-- Created with Inkscape (http://www.inkscape.org/) -->

<svg
   width="660"
   height="960"
   viewBox="0 0 174.625 254"
   version="1.1"
   id="svg10496"
   xmlns="http://www.w3.org/2000/svg"
   xmlns:svg="http://www.w3.org/2000/svg">
  <defs
     id="defs10493" />
  <g
     id="layer1">
    <g
       id="g14843"
       transform="translate(-395.55208,318.82292)"
       style="fill:none">
      <path
         style="fill:none;stroke:#ffffff;stroke-width:2.64583;stroke-dasharray:none;stroke-opacity:1"
         d="m 423.33333,-312.20833 v 17.4249 a 9.0334263,9.0334263 112.50001 0 1 -2.64583,6.3876 l -20.07084,20.07083 a 12.774853,12.774853 112.50001 0 0 -3.74167,9.03319 v 161.549799 a 31.596179,31.596179 45 0 0 31.59618,31.596179 h 108.78681 c 17.45009,0 31.59608,-11.845816 31.59608,-26.45837 -10e-6,-14.536698 10e-6,-55.995638 10e-5,-166.687708 0,-2.92237 -1.6752,-6.96662 -3.74167,-9.03309 l -20.07083,-20.07083 a 9.0334287,9.0334287 67.5 0 1 -2.64583,-6.3876 v -17.4249 A 5.2916706,5.2916706 45 0 0 537.10416,-317.5 H 428.625 a 5.2916706,5.2916706 135 0 0 -5.29167,5.29167 z"
         id="rect14721" />
      <path
         style="fill:none;fill-opacity:1;stroke:#ffffff;stroke-width:2.64583;stroke-linecap:round;stroke-dasharray:none;stroke-opacity:1"
         d="m 420.68749,-304.27083 h 42.33334"
         id="path14826" />
      <path
         style="fill:none;fill-opacity:1;stroke:#ffffff;stroke-width:2.64583;stroke-linecap:round;stroke-dasharray:none;stroke-opacity:1"
         d="m 476.24999,-304.27083 h 68.79167"
         id="path14828" />
      <path
         style="fill:none;fill-opacity:1;stroke:#ffffff;stroke-width:2.64583;stroke-linecap:round;stroke-dasharray:none;stroke-opacity:1"
         d="M 428.62499,-291.04166 H 537.10416"
         id="path14830" />
      <path
         style="fill:none;fill-opacity:1;stroke:#ffffff;stroke-width:2.64583;stroke-linecap:round;stroke-dasharray:none;stroke-opacity:1"
         d="M 423.33333,-251.35416 V -150.8125"
         id="path14832" />
      <path
         style="fill:none;fill-opacity:1;stroke:#ffffff;stroke-width:2.64583;stroke-linecap:round;stroke-dasharray:none;stroke-opacity:1"
         d="M 423.33333,-137.58333 V -111.125"
         id="path14834" />
    </g>
    <path
       style="fill:none;fill-opacity:1;stroke:#000000;stroke-width:0.264583;stroke-linecap:round;stroke-dasharray:none"
       d="M 1108.6042,-13.229167 V -396.875"
       id="path14935" />
    <g
       id="g14952"
       style="stroke-width:8.92024;stroke-dasharray:none;fill:none"
       transform="matrix(0.29661022,0,0,0.29661022,-241.51081,178.01078)">
      <ellipse
         style="fill:none;fill-opacity:1;stroke:#ffffff;stroke-width:8.92024;stroke-linecap:round;stroke-dasharray:none;stroke-opacity:1"
         id="path14845"
         cx="1108.5825"
         cy="-171.97917"
         rx="89.936821"
         ry="145.52083" />
      <path
         style="fill:none;fill-opacity:1;stroke:#ffffff;stroke-width:8.92024;stroke-linecap:round;stroke-dasharray:none;stroke-opacity:1"
         d="m 1031.875,-251.35416 -66.14585,-26.45834 v -26.45833"
         id="path14917" />
      <path
         style="fill:none;fill-opacity:1;stroke:#ffffff;stroke-width:8.92024;stroke-linecap:round;stroke-dasharray:none;stroke-opacity:1"
         d="m 1018.6458,-185.20833 h -66.14581 l -13.22917,-26.45833"
         id="path14921" />
      <path
         style="fill:none;fill-opacity:1;stroke:#ffffff;stroke-width:8.92024;stroke-linecap:round;stroke-dasharray:none;stroke-opacity:1"
         d="m 1023.9375,-119.0625 -66.14585,26.458334 v 26.458333"
         id="path14923" />
      <path
         style="fill:none;fill-opacity:1;stroke:#ffffff;stroke-width:8.92024;stroke-linecap:round;stroke-dasharray:none;stroke-opacity:1"
         d="m 1185.3333,-251.35416 66.1458,-26.45834 v -26.45833"
         id="path14927" />
      <path
         style="fill:none;fill-opacity:1;stroke:#ffffff;stroke-width:8.92024;stroke-linecap:round;stroke-dasharray:none;stroke-opacity:1"
         d="m 1198.5625,-185.20833 h 66.1458 l 13.2291,-26.45833"
         id="path14929" />
      <path
         style="fill:none;fill-opacity:1;stroke:#ffffff;stroke-width:8.92024;stroke-linecap:round;stroke-dasharray:none;stroke-opacity:1"
         d="m 1193.2708,-119.0625 66.1458,26.458334 v 26.458333"
         id="path14931" />
      <path
         style="fill:none;fill-opacity:1;stroke:#ffffff;stroke-width:8.92024;stroke-linecap:round;stroke-dasharray:none;stroke-opacity:1"
         d="m 1058.3333,-52.916666 50.2709,-26.458333 50.2708,26.458333"
         id="path14933" />
      <path
         style="fill:none;fill-opacity:1;stroke:#ffffff;stroke-width:8.92024;stroke-linecap:round;stroke-dasharray:none;stroke-opacity:1"
         d="m 1042.4583,-267.22916 0,10e-6 A 45.167314,45.167314 22.499957 0 0 1074.3964,-254 l 68.4155,0 a 45.167262,45.167262 157.50002 0 0 31.9381,-13.22916 l 1.1855,-1.18552"
         id="path14941" />
    </g>
  </g>
</svg>
